# xmcd
#
# Track frame offsets:
#	150
#	17733
#	38600
#	62195
#	81505
#	94828
#	116391
#	141352
#	156422
#	180028
#	196832
#
# Disc length: 2852 seconds
#
# Revision: 1
# Processed by: cddbd v1.4PL0 Copyright (c) Steve Scherf et al.
# Submitted via: EasyCDDAExtractor 5.1.0
#
DISCID=8a0b220b
DTITLE=Various Artist - If Not Now...
DYEAR=2003
DGENRE=Country
TTITLE0=Fertile Ground - UPS Man
TTITLE1=South of Houston
TTITLE2=Rainstorm
TTITLE3=Same Old Wheel (Jodie)
TTITLE4=Piece of Clay
TTITLE5=One Chance
TTITLE6=These Old Doors
TTITLE7=Cooley Drive
TTITLE8=Meant to Be
TTITLE9=Crushed
TTITLE10=Sure Gets Cold
EXTD=
EXTT0=
EXTT1=
EXTT2=
EXTT3=
EXTT4=
EXTT5=
EXTT6=
EXTT7=
EXTT8=
EXTT9=
EXTT10=
PLAYORDER=
